<svg version="1.1" id="Layer_1" xmlns="http://www.w3.org/2000/svg" xmlns:xlink="http://www.w3.org/1999/xlink" x="0px" y="0px"
	 width="100%" viewBox="0 0 192 192" enable-background="new 0 0 192 192" xml:space="preserve">
<path fill="#231815" opacity="1.000000" stroke="none" 
	d="
M127.000000,193.000000 
	C84.693916,193.000000 42.887829,193.000000 1.040873,193.000000 
	C1.040873,129.068954 1.040873,65.137886 1.040873,1.103403 
	C64.889229,1.103403 128.778687,1.103403 192.834076,1.103403 
	C192.834076,64.999649 192.834076,128.999786 192.834076,193.000000 
	C171.138168,193.000000 149.319092,193.000000 127.000000,193.000000 
M117.501411,11.911351 
	C112.074417,11.911351 106.647415,11.911351 101.221550,11.911351 
	C101.221550,39.231350 101.221550,65.959038 101.221550,92.821030 
	C128.199097,92.821030 154.928284,92.821030 181.749146,92.821030 
	C181.749146,65.769676 181.749146,38.925129 181.749146,11.911351 
	C160.440430,11.911351 139.470779,11.911351 117.501411,11.911351 
M86.425087,100.973495 
	C61.674728,100.973495 36.924370,100.973495 12.155863,100.973495 
	C12.155863,128.268982 12.155863,154.998856 12.155863,181.889160 
	C39.128788,181.889160 65.857033,181.889160 92.692520,181.889160 
	C92.692520,154.840256 92.692520,127.992043 92.692520,100.973503 
	C90.707039,100.973503 89.054817,100.973503 86.425087,100.973495 
z"/>
<path fill="#FFFFFF" opacity="1.000000" stroke="none" 
	d="
M118.001266,11.911351 
	C139.470779,11.911351 160.440430,11.911351 181.749146,11.911351 
	C181.749146,38.925129 181.749146,65.769676 181.749146,92.821030 
	C154.928284,92.821030 128.199097,92.821030 101.221550,92.821030 
	C101.221550,65.959038 101.221550,39.231350 101.221550,11.911351 
	C106.647415,11.911351 112.074417,11.911351 118.001266,11.911351 
z"/>
<path fill="#FFFFFF" opacity="1.000000" stroke="none" 
	d="
M86.913834,100.973495 
	C89.054817,100.973503 90.707039,100.973503 92.692520,100.973503 
	C92.692520,127.992043 92.692520,154.840256 92.692520,181.889160 
	C65.857033,181.889160 39.128788,181.889160 12.155863,181.889160 
	C12.155863,154.998856 12.155863,128.268982 12.155863,100.973495 
	C36.924370,100.973495 61.674728,100.973495 86.913834,100.973495 
z"/>
</svg>