<svg version="1.1" id="Layer_1" xmlns="http://www.w3.org/2000/svg" xmlns:xlink="http://www.w3.org/1999/xlink" x="0px" y="0px"
	 width="100%" viewBox="0 0 459 459" enable-background="new 0 0 459 459" xml:space="preserve">
<path opacity="0" stroke="none" 
	d="
M460.000000,163.000000 
	C460.000000,262.306427 460.000000,361.112854 460.000000,459.959656 
	C307.068573,459.959656 154.137146,459.959656 1.102852,459.959656 
	C1.102852,307.110291 1.102852,154.220490 1.102852,1.165339 
	C153.999847,1.165339 306.999908,1.165339 460.000000,1.165339 
	C460.000000,54.862808 460.000000,108.681404 460.000000,163.000000 
M458.134277,232.497665 
	C456.654419,216.607040 456.665863,200.408493 453.458496,184.874542 
	C428.090576,62.012295 310.634857,-16.341652 187.426498,6.826018 
	C63.344551,30.157953 -18.509726,152.611023 7.274910,276.330719 
	C32.281448,396.316956 146.098831,474.580383 267.349365,455.163849 
	C375.908630,437.779663 456.950134,343.616791 458.134277,232.497665 
z"/>
<path fill="#02AF9C" opacity="1.000000" stroke="none" 
	d="
M458.131470,232.996704 
	C456.950134,343.616791 375.908630,437.779663 267.349365,455.163849 
	C146.098831,474.580383 32.281448,396.316956 7.274910,276.330719 
	C-18.509726,152.611023 63.344551,30.157953 187.426498,6.826018 
	C310.634857,-16.341652 428.090576,62.012295 453.458496,184.874542 
	C456.665863,200.408493 456.654419,216.607040 458.131470,232.996704 
M205.009232,179.245193 
	C205.109558,179.225311 205.209885,179.205429 205.310211,179.185532 
	C205.194977,179.128967 205.079727,179.072403 205.053482,178.270157 
	C202.467545,172.507568 199.823730,166.770096 197.307388,160.977280 
	C191.598068,147.834000 186.267471,134.615631 185.144989,120.051712 
	C184.519897,111.941612 183.794907,103.710075 181.802826,95.866524 
	C179.200394,85.619797 175.548706,75.609192 171.823898,65.694069 
	C170.488571,62.139572 167.566925,58.829342 162.934799,60.020718 
	C150.760315,63.151978 140.063904,68.998199 131.521851,78.382706 
	C129.331284,80.789322 129.536652,83.241814 131.485428,86.031288 
	C141.590347,100.495468 151.509048,115.089615 161.515030,129.623062 
	C173.058533,146.389771 185.233231,162.632950 200.667175,176.118195 
	C201.962509,177.249969 203.583649,178.008850 205.009232,179.245193 
M195.084991,214.905197 
	C189.677475,217.031723 184.390045,219.561005 178.841705,221.215256 
	C154.471542,228.481323 132.825134,221.520676 118.132347,200.828705 
	C112.422668,192.787704 108.488464,183.461472 103.994392,174.594543 
	C102.314034,171.279144 101.342003,167.604736 100.047005,164.094025 
	C98.708054,166.212067 98.034569,168.235886 98.019196,170.264709 
	C97.944939,180.064423 97.503906,189.904861 98.210388,199.657166 
	C99.381271,215.820068 102.665749,231.600372 109.860924,246.312119 
	C114.624512,256.052063 120.938477,264.499054 130.625763,269.918549 
	C139.348053,274.798157 141.965240,274.048920 145.748032,264.856140 
	C150.511017,253.281342 157.957535,244.038223 168.105453,236.750916 
	C177.695084,229.864502 187.052490,222.654694 197.016479,215.309204 
	C197.220963,214.991638 197.425461,214.674057 197.629944,214.356476 
	C197.021362,214.498169 196.412796,214.639862 195.084991,214.905197 
M126.283363,301.244263 
	C149.517517,310.897705 169.923386,306.890198 187.545547,289.180756 
	C192.361389,284.341034 196.656967,278.834015 202.040588,274.753784 
	C206.791779,271.152893 212.472900,267.994446 218.208969,266.693756 
	C224.187592,265.338074 227.227448,262.427246 228.862274,257.076813 
	C229.238373,255.845963 229.732574,254.651230 230.396637,252.822357 
	C230.999878,254.552200 231.457016,255.593002 231.726349,256.680328 
	C233.192841,262.600555 236.551804,265.777679 242.923813,266.975464 
	C247.770676,267.886536 252.892685,270.174530 256.669434,273.318756 
	C263.542816,279.040924 269.442535,285.921021 275.865997,292.197723 
	C288.387695,304.433319 303.450684,308.200989 320.458801,305.352844 
	C341.705078,301.794983 357.120636,289.427124 369.136810,272.431641 
	C374.039764,265.496979 377.733124,257.707123 381.976776,250.306320 
	C381.395325,249.942245 380.813873,249.578186 380.232422,249.214111 
	C378.484070,251.511337 376.976471,254.051697 374.945068,256.063049 
	C366.824371,264.103424 359.029999,272.578918 350.205475,279.778748 
	C336.226257,291.184204 307.151611,286.065735 296.726379,275.309692 
	C292.673645,271.128357 288.625122,266.936584 284.733521,262.606812 
	C277.618530,254.690826 271.039429,246.221436 261.098022,241.450333 
	C253.339584,237.726868 245.674713,237.713531 238.139557,241.905746 
	C235.416656,243.420639 232.893814,245.295166 230.333694,246.970230 
	C213.744919,233.264099 200.647369,237.077606 186.722763,250.802368 
	C181.398590,256.050140 176.314941,261.622528 171.717789,267.512268 
	C157.313492,285.966644 131.361877,289.591614 116.403282,282.958435 
	C105.111504,277.951202 96.875023,269.251740 89.075081,260.078186 
	C86.113762,256.595367 83.402847,252.899658 80.088844,248.678101 
	C82.685295,264.257568 103.030754,292.189545 126.283363,301.244263 
M248.302795,355.830170 
	C248.531921,353.850220 248.996109,351.864807 248.950607,349.891205 
	C248.720657,339.917480 248.218018,329.948792 248.078934,319.974579 
	C247.919708,308.554871 248.042068,297.131256 248.042068,286.322571 
	C233.833282,299.632874 227.595093,299.611847 212.291931,284.423706 
	C212.512085,287.956512 212.988602,291.201172 212.867203,294.423340 
	C212.366302,307.718994 211.549088,321.003204 211.096252,334.300110 
	C210.112320,363.191132 215.747391,391.218872 222.490433,419.082153 
	C223.749588,424.285156 225.193542,429.443481 226.750381,435.377869 
	C234.797150,419.426483 246.856262,374.694000 248.302795,355.830170 
M268.416107,219.062576 
	C275.629059,224.423065 282.666626,230.041916 290.095306,235.084564 
	C301.748993,242.995163 310.257294,253.202759 315.456970,266.354309 
	C318.347260,273.664795 321.153473,274.430542 328.246613,270.766052 
	C338.930908,265.246277 345.987457,256.297241 350.877441,245.636002 
	C361.842804,221.729111 364.162689,196.392410 362.639862,170.500656 
	C362.512939,168.342957 361.893219,166.214233 361.395081,163.483170 
	C356.888062,173.473541 353.311798,182.804352 348.601166,191.522217 
	C341.038879,205.517502 330.459991,216.637375 314.783447,221.626358 
	C298.937866,226.669128 283.900299,223.227600 269.245117,216.676834 
	C267.470184,215.883453 265.580109,215.347641 263.743408,214.692459 
	C263.643585,214.966293 263.543762,215.240128 263.443939,215.513962 
	C264.908142,216.557175 266.372375,217.600403 268.416107,219.062576 
M275.320923,115.889732 
	C275.369232,138.944702 263.922455,158.371109 255.497223,178.961655 
	C257.235016,178.227875 258.725220,177.305725 259.878571,176.069351 
	C268.271149,167.072601 277.456604,158.653244 284.762085,148.838593 
	C299.759705,128.689865 313.582977,107.670860 328.259186,87.276009 
	C331.473358,82.809425 330.783142,79.804642 327.371674,76.511070 
	C319.308136,68.726288 309.726532,63.531395 299.088379,60.223476 
	C295.528229,59.116459 292.288971,59.966385 290.358978,63.216991 
	C287.996735,67.195686 285.237305,71.227280 284.132812,75.609795 
	C280.849792,88.636635 278.294006,101.846748 275.320923,115.889732 
M258.809692,102.497383 
	C257.824127,82.139709 268.171143,67.666962 284.416626,55.533234 
	C277.169342,53.608147 271.122559,51.767273 264.964752,50.442963 
	C260.314728,49.442924 255.650177,49.658962 251.780685,53.153736 
	C241.814301,62.154972 234.793930,73.063698 233.162384,86.441017 
	C232.104904,95.111679 232.838150,104.018745 232.992249,112.815987 
	C233.590347,146.960358 234.274185,181.103256 234.942001,215.246368 
	C234.977798,217.076782 235.078384,218.913910 235.294708,220.730530 
	C235.507751,222.519562 235.906509,224.286453 236.223801,226.063065 
	C237.119934,225.104889 237.213821,224.298431 237.252716,223.489304 
	C238.523438,197.052277 243.832275,171.380844 251.578979,146.127197 
	C255.834122,132.255753 259.150665,118.158524 258.809692,102.497383 
M221.980103,208.666885 
	C222.410004,214.418030 222.839905,220.169159 223.269821,225.920303 
	C224.259399,224.686600 224.791275,223.345016 224.900558,221.969849 
	C225.335510,216.497223 225.834137,211.018570 225.958969,205.534180 
	C226.777084,169.591568 227.490982,133.646606 228.266052,97.702995 
	C228.639923,80.365051 222.276260,65.853516 209.650101,54.166576 
	C207.489014,52.166256 204.238693,50.479141 201.371735,50.267082 
	C192.803543,49.633316 184.972366,52.905159 176.625336,55.937729 
	C178.984116,57.851765 180.826660,59.263725 182.577805,60.781143 
	C195.498840,71.977631 202.005234,85.842712 202.086273,103.234390 
	C202.133820,113.442238 203.352707,123.885056 205.787613,133.793884 
	C211.813721,158.316971 219.780334,182.386536 221.980103,208.666885 
M350.771698,170.185089 
	C352.589905,164.669449 354.652924,159.219528 356.156219,153.619339 
	C357.605713,148.219696 358.477234,142.664902 359.602661,137.178268 
	C348.546417,156.445602 336.494568,162.764023 320.414307,168.112503 
	C310.831421,171.299881 300.763397,173.016602 291.145691,176.115219 
	C283.472717,178.587326 275.280823,180.936630 268.886200,185.524460 
	C260.250336,191.720306 259.669281,198.319290 267.460297,205.188934 
	C279.014862,215.377029 305.509308,218.166992 321.467102,208.050293 
	C335.615326,199.080795 343.840820,185.642029 350.771698,170.185089 
M144.827576,169.793503 
	C126.107079,164.039810 109.691650,155.291336 101.443718,135.850464 
	C102.894218,153.871811 108.436966,170.331299 117.450417,185.470169 
	C129.474609,205.665817 146.575439,216.967758 171.093811,214.017944 
	C180.251022,212.916245 188.485718,209.760605 195.174454,203.208008 
	C198.571121,199.880447 199.031708,196.015991 196.929672,191.800629 
	C194.257584,186.442078 189.878952,182.758972 184.357925,181.054733 
	C171.524918,177.093369 158.539886,173.624435 144.827576,169.793503 
M155.600769,341.904358 
	C156.649368,343.198151 157.625488,344.559448 158.757751,345.775360 
	C170.549911,358.438416 182.287933,371.153931 194.248764,383.656097 
	C196.462494,385.970001 199.603546,387.396729 202.722290,389.507538 
	C200.730789,370.968048 197.150436,353.629730 197.500061,336.371002 
	C197.846115,319.288605 202.157730,302.286530 204.631897,285.898468 
	C195.989182,294.252258 186.838028,303.423889 177.328003,312.206970 
	C165.426331,323.198853 153.804260,324.035889 140.115662,315.415497 
	C138.677246,314.509644 137.222305,313.630066 135.775040,312.738281 
	C135.448990,313.097778 135.122940,313.457275 134.796890,313.816772 
	C141.578781,322.996246 148.360657,332.175690 155.600769,341.904358 
M261.849976,352.162842 
	C259.994629,363.546509 258.139252,374.930145 256.240906,386.577393 
	C268.044983,383.978973 321.084595,324.073792 323.652740,310.892456 
	C322.257233,311.757782 321.022003,312.513123 319.797150,313.284943 
	C305.945404,322.012512 294.638824,321.291138 282.584961,310.340393 
	C274.954254,303.407990 267.731354,296.020813 260.450134,288.713470 
	C258.511627,286.768005 257.032196,284.365082 255.342010,282.172180 
	C254.879074,282.602448 254.416138,283.032715 253.953201,283.462982 
	C256.425476,294.618225 259.791992,305.668365 261.118774,316.958282 
	C262.447754,328.267273 261.740021,339.815613 261.849976,352.162842 
M327.924225,107.368370 
	C314.603455,135.440353 295.392090,158.472763 268.820068,176.343704 
	C270.761749,175.877716 272.030823,175.709793 273.198822,175.272125 
	C287.965149,169.738602 302.699768,164.120117 317.477631,158.617737 
	C330.370911,153.817047 342.132874,147.237457 349.441223,135.183365 
	C352.246674,130.556198 354.846588,124.502472 354.334625,119.421799 
	C353.046753,106.641853 344.750458,96.987801 336.956024,86.894363 
	C333.837982,93.943909 331.022705,100.308945 327.924225,107.368370 
M169.092987,167.318237 
	C174.991852,169.853226 180.890701,172.388214 186.789566,174.923218 
	C187.041519,174.594681 187.293472,174.266144 187.545425,173.937607 
	C157.282120,151.633377 136.396118,122.492622 123.633209,85.767036 
	C118.704475,93.410240 114.410477,99.856178 110.334282,106.437035 
	C103.086258,118.138680 105.381783,128.997147 113.688599,139.101700 
	C121.879929,149.065796 132.618912,155.162766 144.718903,159.134552 
	C152.617065,161.727066 160.485886,164.408905 169.092987,167.318237 
z"/>
<path fill="#2F3231" opacity="1.000000" stroke="none" 
	d="
M125.920563,301.120758 
	C103.030754,292.189545 82.685295,264.257568 80.088844,248.678101 
	C83.402847,252.899658 86.113762,256.595367 89.075081,260.078186 
	C96.875023,269.251740 105.111504,277.951202 116.403282,282.958435 
	C131.361877,289.591614 157.313492,285.966644 171.717789,267.512268 
	C176.314941,261.622528 181.398590,256.050140 186.722763,250.802368 
	C200.647369,237.077606 213.744919,233.264099 230.333694,246.970230 
	C232.893814,245.295166 235.416656,243.420639 238.139557,241.905746 
	C245.674713,237.713531 253.339584,237.726868 261.098022,241.450333 
	C271.039429,246.221436 277.618530,254.690826 284.733521,262.606812 
	C288.625122,266.936584 292.673645,271.128357 296.726379,275.309692 
	C307.151611,286.065735 336.226257,291.184204 350.205475,279.778748 
	C359.029999,272.578918 366.824371,264.103424 374.945068,256.063049 
	C376.976471,254.051697 378.484070,251.511337 380.232422,249.214111 
	C380.813873,249.578186 381.395325,249.942245 381.976776,250.306320 
	C377.733124,257.707123 374.039764,265.496979 369.136810,272.431641 
	C357.120636,289.427124 341.705078,301.794983 320.458801,305.352844 
	C303.450684,308.200989 288.387695,304.433319 275.865997,292.197723 
	C269.442535,285.921021 263.542816,279.040924 256.669434,273.318756 
	C252.892685,270.174530 247.770676,267.886536 242.923813,266.975464 
	C236.551804,265.777679 233.192841,262.600555 231.726349,256.680328 
	C231.457016,255.593002 230.999878,254.552200 230.396637,252.822357 
	C229.732574,254.651230 229.238373,255.845963 228.862274,257.076813 
	C227.227448,262.427246 224.187592,265.338074 218.208969,266.693756 
	C212.472900,267.994446 206.791779,271.152893 202.040588,274.753784 
	C196.656967,278.834015 192.361389,284.341034 187.545547,289.180756 
	C169.923386,306.890198 149.517517,310.897705 125.920563,301.120758 
z"/>
<path fill="#2F3131" opacity="1.000000" stroke="none" 
	d="
M248.239746,356.279541 
	C246.856262,374.694000 234.797150,419.426483 226.750381,435.377869 
	C225.193542,429.443481 223.749588,424.285156 222.490433,419.082153 
	C215.747391,391.218872 210.112320,363.191132 211.096252,334.300110 
	C211.549088,321.003204 212.366302,307.718994 212.867203,294.423340 
	C212.988602,291.201172 212.512085,287.956512 212.291931,284.423706 
	C227.595093,299.611847 233.833282,299.632874 248.042068,286.322571 
	C248.042068,297.131256 247.919708,308.554871 248.078934,319.974579 
	C248.218018,329.948792 248.720657,339.917480 248.950607,349.891205 
	C248.996109,351.864807 248.531921,353.850220 248.239746,356.279541 
z"/>
<path fill="#F8BCC8" opacity="1.000000" stroke="none" 
	d="
M196.512039,215.587128 
	C187.052490,222.654694 177.695084,229.864502 168.105453,236.750916 
	C157.957535,244.038223 150.511017,253.281342 145.748032,264.856140 
	C141.965240,274.048920 139.348053,274.798157 130.625763,269.918549 
	C120.938477,264.499054 114.624512,256.052063 109.860924,246.312119 
	C102.665749,231.600372 99.381271,215.820068 98.210388,199.657166 
	C97.503906,189.904861 97.944939,180.064423 98.019196,170.264709 
	C98.034569,168.235886 98.708054,166.212067 100.047005,164.094025 
	C101.342003,167.604736 102.314034,171.279144 103.994392,174.594543 
	C108.488464,183.461472 112.422668,192.787704 118.132347,200.828705 
	C132.825134,221.520676 154.471542,228.481323 178.841705,221.215256 
	C184.390045,219.561005 189.677475,217.031723 195.619049,215.046967 
	C196.272736,215.321548 196.392395,215.454330 196.512039,215.587128 
z"/>
<path fill="#F8BCC9" opacity="1.000000" stroke="none" 
	d="
M268.126343,218.853088 
	C266.372375,217.600403 264.908142,216.557175 263.443939,215.513962 
	C263.543762,215.240128 263.643585,214.966293 263.743408,214.692459 
	C265.580109,215.347641 267.470184,215.883453 269.245117,216.676834 
	C283.900299,223.227600 298.937866,226.669128 314.783447,221.626358 
	C330.459991,216.637375 341.038879,205.517502 348.601166,191.522217 
	C353.311798,182.804352 356.888062,173.473541 361.395081,163.483170 
	C361.893219,166.214233 362.512939,168.342957 362.639862,170.500656 
	C364.162689,196.392410 361.842804,221.729111 350.877441,245.636002 
	C345.987457,256.297241 338.930908,265.246277 328.246613,270.766052 
	C321.153473,274.430542 318.347260,273.664795 315.456970,266.354309 
	C310.257294,253.202759 301.748993,242.995163 290.095306,235.084564 
	C282.666626,230.041916 275.629059,224.423065 268.126343,218.853088 
z"/>
<path fill="#FCFEFE" opacity="1.000000" stroke="none" 
	d="
M275.387451,115.437485 
	C278.294006,101.846748 280.849792,88.636635 284.132812,75.609795 
	C285.237305,71.227280 287.996735,67.195686 290.358978,63.216991 
	C292.288971,59.966385 295.528229,59.116459 299.088379,60.223476 
	C309.726532,63.531395 319.308136,68.726288 327.371674,76.511070 
	C330.783142,79.804642 331.473358,82.809425 328.259186,87.276009 
	C313.582977,107.670860 299.759705,128.689865 284.762085,148.838593 
	C277.456604,158.653244 268.271149,167.072601 259.878571,176.069351 
	C258.725220,177.305725 257.235016,178.227875 255.497223,178.961655 
	C263.922455,158.371109 275.369232,138.944702 275.387451,115.437485 
z"/>
<path fill="#FCFEFE" opacity="1.000000" stroke="none" 
	d="
M205.053421,178.940964 
	C203.583649,178.008850 201.962509,177.249969 200.667175,176.118195 
	C185.233231,162.632950 173.058533,146.389771 161.515030,129.623062 
	C151.509048,115.089615 141.590347,100.495468 131.485428,86.031288 
	C129.536652,83.241814 129.331284,80.789322 131.521851,78.382706 
	C140.063904,68.998199 150.760315,63.151978 162.934799,60.020718 
	C167.566925,58.829342 170.488571,62.139572 171.823898,65.694069 
	C175.548706,75.609192 179.200394,85.619797 181.802826,95.866524 
	C183.794907,103.710075 184.519897,111.941612 185.144989,120.051712 
	C186.267471,134.615631 191.598068,147.834000 197.307388,160.977280 
	C199.823730,166.770096 202.467545,172.507568 205.032547,178.625854 
	C205.011612,178.981567 205.053421,178.940964 205.053421,178.940964 
z"/>
<path fill="#FAB329" opacity="1.000000" stroke="none" 
	d="
M258.818542,102.987381 
	C259.150665,118.158524 255.834122,132.255753 251.578979,146.127197 
	C243.832275,171.380844 238.523438,197.052277 237.252716,223.489304 
	C237.213821,224.298431 237.119934,225.104889 236.223801,226.063065 
	C235.906509,224.286453 235.507751,222.519562 235.294708,220.730530 
	C235.078384,218.913910 234.977798,217.076782 234.942001,215.246368 
	C234.274185,181.103256 233.590347,146.960358 232.992249,112.815987 
	C232.838150,104.018745 232.104904,95.111679 233.162384,86.441017 
	C234.793930,73.063698 241.814301,62.154972 251.780685,53.153736 
	C255.650177,49.658962 260.314728,49.442924 264.964752,50.442963 
	C271.122559,51.767273 277.169342,53.608147 284.416626,55.533234 
	C268.171143,67.666962 257.824127,82.139709 258.818542,102.987381 
z"/>
<path fill="#FBB329" opacity="1.000000" stroke="none" 
	d="
M221.947113,208.210602 
	C219.780334,182.386536 211.813721,158.316971 205.787613,133.793884 
	C203.352707,123.885056 202.133820,113.442238 202.086273,103.234390 
	C202.005234,85.842712 195.498840,71.977631 182.577805,60.781143 
	C180.826660,59.263725 178.984116,57.851765 176.625336,55.937729 
	C184.972366,52.905159 192.803543,49.633316 201.371735,50.267082 
	C204.238693,50.479141 207.489014,52.166256 209.650101,54.166576 
	C222.276260,65.853516 228.639923,80.365051 228.266052,97.702995 
	C227.490982,133.646606 226.777084,169.591568 225.958969,205.534180 
	C225.834137,211.018570 225.335510,216.497223 224.900558,221.969849 
	C224.791275,223.345016 224.259399,224.686600 223.269821,225.920303 
	C222.839905,220.169159 222.410004,214.418030 221.947113,208.210602 
z"/>
<path fill="#3748A9" opacity="1.000000" stroke="none" 
	d="
M350.617462,170.532593 
	C343.840820,185.642029 335.615326,199.080795 321.467102,208.050293 
	C305.509308,218.166992 279.014862,215.377029 267.460297,205.188934 
	C259.669281,198.319290 260.250336,191.720306 268.886200,185.524460 
	C275.280823,180.936630 283.472717,178.587326 291.145691,176.115219 
	C300.763397,173.016602 310.831421,171.299881 320.414307,168.112503 
	C336.494568,162.764023 348.546417,156.445602 359.602661,137.178268 
	C358.477234,142.664902 357.605713,148.219696 356.156219,153.619339 
	C354.652924,159.219528 352.589905,164.669449 350.617462,170.532593 
z"/>
<path fill="#3748A9" opacity="1.000000" stroke="none" 
	d="
M145.222015,169.874725 
	C158.539886,173.624435 171.524918,177.093369 184.357925,181.054733 
	C189.878952,182.758972 194.257584,186.442078 196.929672,191.800629 
	C199.031708,196.015991 198.571121,199.880447 195.174454,203.208008 
	C188.485718,209.760605 180.251022,212.916245 171.093811,214.017944 
	C146.575439,216.967758 129.474609,205.665817 117.450417,185.470169 
	C108.436966,170.331299 102.894218,153.871811 101.443718,135.850464 
	C109.691650,155.291336 126.107079,164.039810 145.222015,169.874725 
z"/>
<path fill="#FCFEFE" opacity="1.000000" stroke="none" 
	d="
M155.371643,341.629761 
	C148.360657,332.175690 141.578781,322.996246 134.796890,313.816772 
	C135.122940,313.457275 135.448990,313.097778 135.775040,312.738281 
	C137.222305,313.630066 138.677246,314.509644 140.115662,315.415497 
	C153.804260,324.035889 165.426331,323.198853 177.328003,312.206970 
	C186.838028,303.423889 195.989182,294.252258 204.631897,285.898468 
	C202.157730,302.286530 197.846115,319.288605 197.500061,336.371002 
	C197.150436,353.629730 200.730789,370.968048 202.722290,389.507538 
	C199.603546,387.396729 196.462494,385.970001 194.248764,383.656097 
	C182.287933,371.153931 170.549911,358.438416 158.757751,345.775360 
	C157.625488,344.559448 156.649368,343.198151 155.371643,341.629761 
z"/>
<path fill="#FCFEFE" opacity="1.000000" stroke="none" 
	d="
M261.887512,351.710938 
	C261.740021,339.815613 262.447754,328.267273 261.118774,316.958282 
	C259.791992,305.668365 256.425476,294.618225 253.953201,283.462982 
	C254.416138,283.032715 254.879074,282.602448 255.342010,282.172180 
	C257.032196,284.365082 258.511627,286.768005 260.450134,288.713470 
	C267.731354,296.020813 274.954254,303.407990 282.584961,310.340393 
	C294.638824,321.291138 305.945404,322.012512 319.797150,313.284943 
	C321.022003,312.513123 322.257233,311.757782 323.652740,310.892456 
	C321.084595,324.073792 268.044983,383.978973 256.240906,386.577393 
	C258.139252,374.930145 259.994629,363.546509 261.887512,351.710938 
z"/>
<path fill="#FB6F41" opacity="1.000000" stroke="none" 
	d="
M328.065857,107.021179 
	C331.022705,100.308945 333.837982,93.943909 336.956024,86.894363 
	C344.750458,96.987801 353.046753,106.641853 354.334625,119.421799 
	C354.846588,124.502472 352.246674,130.556198 349.441223,135.183365 
	C342.132874,147.237457 330.370911,153.817047 317.477631,158.617737 
	C302.699768,164.120117 287.965149,169.738602 273.198822,175.272125 
	C272.030823,175.709793 270.761749,175.877716 268.820068,176.343704 
	C295.392090,158.472763 314.603455,135.440353 328.065857,107.021179 
z"/>
<path fill="#FB6F41" opacity="1.000000" stroke="none" 
	d="
M168.730408,167.184494 
	C160.485886,164.408905 152.617065,161.727066 144.718903,159.134552 
	C132.618912,155.162766 121.879929,149.065796 113.688599,139.101700 
	C105.381783,128.997147 103.086258,118.138680 110.334282,106.437035 
	C114.410477,99.856178 118.704475,93.410240 123.633209,85.767036 
	C136.396118,122.492622 157.282120,151.633377 187.545425,173.937607 
	C187.293472,174.266144 187.041519,174.594681 186.789566,174.923218 
	C180.890701,172.388214 174.991852,169.853226 168.730408,167.184494 
z"/>
<path fill="#F8BCC8" opacity="1.000000" stroke="none" 
	d="
M195.978653,214.985138 
	C196.412796,214.639862 197.021362,214.498169 197.629944,214.356476 
	C197.425461,214.674057 197.220963,214.991638 196.764252,215.448166 
	C196.392395,215.454330 196.272736,215.321548 195.978653,214.985138 
z"/>
<path fill="#FCFEFE" opacity="1.000000" stroke="none" 
	d="
M204.988037,178.998703 
	C205.079727,179.072403 205.194977,179.128967 205.310211,179.185532 
	C205.209885,179.205429 205.109558,179.225311 205.031326,179.093079 
	C205.053421,178.940964 205.011612,178.981567 204.988037,178.998703 
z"/>
</svg>